<?xml version="1.0" encoding="UTF-8" standalone="no"?>
<!DOCTYPE svg PUBLIC "-//W3C//DTD SVG 1.1//EN" "http://www.w3.org/Graphics/SVG/1.1/DTD/svg11.dtd">
<svg width="100%" height="100%" viewBox="0 0 804 804" version="1.1" xmlns="http://www.w3.org/2000/svg" xmlns:xlink="http://www.w3.org/1999/xlink" xml:space="preserve" xmlns:serif="http://www.serif.com/" style="fill-rule:evenodd;clip-rule:evenodd;stroke-linecap:round;stroke-linejoin:round;stroke-miterlimit:1.5;">
    <g transform="matrix(1,0,0,1,-1276,0)">
        <g id="Artboard1" transform="matrix(0.971429,0,0,1.17241,1138.32,-913.929)">
            <rect x="141.732" y="779.528" width="826.772" height="685.039" style="fill:none;"/>
            <g transform="matrix(1,0,0,0.823529,7.12457,208.082)">
                <g transform="matrix(0.843171,0,0,1.03571,94.6043,-705.429)">
                    <g transform="matrix(66.6667,0,0,66.6667,837.854,1949.37)">
                    </g>
                    <text x="171.188px" y="1949.37px" style="font-family:'Meiryo-Bold', 'Meiryo', sans-serif;font-weight:700;font-size:66.667px;fill:rgb(255,108,236);">ハイパーリフレクター</text>
                </g>
                <g transform="matrix(0.940633,0,0,1.11772,172.65,-282.269)">
                    <g transform="matrix(1,0,0,1,-742.406,-31.856)">
                        <g>
                            <g transform="matrix(1,0,0,1,39.4736,0)">
                                <path d="M773.47,1399.49L773.47,1113.16L831.282,1113.16L831.282,1225.86L944.563,1225.86L944.563,1113.16L1002.38,1113.16L1002.38,1399.49L944.563,1399.49L944.563,1274.29L831.282,1274.29L831.282,1399.49L773.47,1399.49Z" style="fill:rgb(255,108,236);"/>
                            </g>
                            <path d="M1151.11,1281.01C1145.86,1280.31 1068.87,1255.85 1068.87,1255.85L1184.02,1113.16C1214.62,1113.16 1236.85,1115.73 1250.72,1120.88C1264.58,1126.02 1275.68,1135.17 1284.02,1148.32C1292.35,1161.47 1296.52,1176.51 1296.52,1193.43C1296.52,1214.92 1290.2,1232.66 1277.57,1246.66C1264.94,1260.65 1246.06,1269.48 1220.93,1273.12C1233.43,1280.41 1243.75,1288.42 1251.89,1297.14C1260.03,1305.87 1271,1321.36 1284.8,1343.63L1319.76,1399.49L1250.62,1399.49L1208.82,1337.18C1193.98,1314.92 1183.82,1300.89 1178.35,1295.09C1172.88,1289.3 1167.09,1285.33 1160.97,1283.18C1158.34,1282.26 1155.05,1281.53 1151.11,1281.01ZM1120.15,1234.25L1162.92,1234.25C1190.66,1234.25 1207.98,1233.08 1214.88,1230.74C1221.78,1228.39 1227.18,1224.36 1231.09,1218.63C1234.99,1212.9 1236.95,1205.74 1236.95,1197.14C1236.95,1187.51 1234.38,1179.73 1229.23,1173.81C1224.09,1167.88 1216.83,1164.14 1207.45,1162.58C1202.77,1161.92 1188.7,1161.6 1165.27,1161.6L1120.15,1161.6L1120.15,1234.25Z" style="fill:rgb(255,108,236);"/>
                        </g>
                    </g>
                    <g transform="matrix(1,0,0,1,-654.637,-31.856)">
                        <g>
                            <g transform="matrix(1,0,0,1,39.4736,0)">
                                <path d="M773.47,1399.49L773.47,1113.16L831.282,1113.16L831.282,1225.86L944.563,1225.86L944.563,1113.16L1002.38,1113.16L1002.38,1399.49L944.563,1399.49L944.563,1274.29L831.282,1274.29L831.282,1399.49L773.47,1399.49Z" style="fill:rgb(255,108,236);"/>
                            </g>
                            <path d="M988.483,1399.49L990.393,1286.71L994.477,1163.02L1009.58,1114.11L1184.02,1113.16C1214.62,1113.16 1236.85,1115.73 1250.72,1120.88C1264.58,1126.02 1275.68,1135.17 1284.02,1148.32C1292.35,1161.47 1296.52,1176.51 1296.52,1193.43C1296.52,1214.92 1290.2,1232.66 1277.57,1246.66C1264.94,1260.65 1246.06,1269.48 1220.93,1273.12C1233.43,1280.41 1243.75,1288.42 1251.89,1297.14C1260.03,1305.87 1271,1321.36 1284.8,1343.63L1319.76,1399.49L1250.62,1399.49L1208.82,1337.18C1193.98,1314.92 1183.82,1300.89 1178.35,1295.09C1172.88,1289.3 1167.09,1285.33 1160.97,1283.18C1154.85,1281.03 1145.15,1279.96 1131.87,1279.96L1120.15,1279.96L1120.15,1399.49L988.483,1399.49ZM1120.15,1234.25L1162.92,1234.25C1190.66,1234.25 1207.98,1233.08 1214.88,1230.74C1221.78,1228.39 1227.18,1224.36 1231.09,1218.63C1234.99,1212.9 1236.95,1205.74 1236.95,1197.14C1236.95,1187.51 1234.38,1179.73 1229.23,1173.81C1224.09,1167.88 1216.83,1164.14 1207.45,1162.58C1202.77,1161.92 1188.7,1161.6 1165.27,1161.6L1120.15,1161.6L1120.15,1234.25Z" style="fill:rgb(255,108,236);"/>
                        </g>
                    </g>
                    <g transform="matrix(1,0,0,1,-695.929,-31.856)">
                        <g>
                            <g transform="matrix(1,0,0,1,39.4736,0)">
                                <path d="M773.47,1399.49L773.47,1113.16L831.282,1113.16L831.282,1225.86L944.563,1225.86L944.563,1113.16L1002.38,1113.16L1002.38,1399.49L944.563,1399.49L944.563,1274.29L831.282,1274.29L831.282,1399.49L773.47,1399.49Z" style="fill:rgb(255,108,236);"/>
                            </g>
                            <path d="M988.483,1399.49L990.393,1286.71L996.123,1113.16L1184.02,1113.16C1214.62,1113.16 1236.85,1115.73 1250.72,1120.88C1264.58,1126.02 1275.68,1135.17 1284.02,1148.32C1292.35,1161.47 1296.52,1176.51 1296.52,1193.43C1296.52,1214.92 1290.2,1232.66 1277.57,1246.66C1264.94,1260.65 1246.06,1269.48 1220.93,1273.12C1233.43,1280.41 1243.75,1288.42 1251.89,1297.14C1260.03,1305.87 1271,1321.36 1284.8,1343.63L1319.76,1399.49L1250.62,1399.49L1208.82,1337.18C1193.98,1314.92 1183.82,1300.89 1178.35,1295.09C1172.88,1289.3 1167.09,1285.33 1160.97,1283.18C1154.85,1281.03 1145.15,1279.96 1131.87,1279.96L1120.15,1279.96L1120.15,1399.49L988.483,1399.49ZM1120.15,1234.25L1162.92,1234.25C1190.66,1234.25 1207.98,1233.08 1214.88,1230.74C1221.78,1228.39 1227.18,1224.36 1231.09,1218.63C1234.99,1212.9 1236.95,1205.74 1236.95,1197.14C1236.95,1187.51 1234.38,1179.73 1229.23,1173.81C1224.09,1167.88 1216.83,1164.14 1207.45,1162.58C1202.77,1161.92 1188.7,1161.6 1165.27,1161.6L1120.15,1161.6L1120.15,1234.25Z" style="fill:rgb(255,108,236);"/>
                        </g>
                    </g>
                </g>
                <g transform="matrix(0.954602,0,0,1.11772,216.146,-282.269)">
                    <path d="M216.119,1367.63L70.537,1367.63L70.537,1081.31L216.119,1081.31L216.119,1194L241.631,1194L241.631,1081.31L488.087,1081.31C492.449,1081.31 496.642,1081.36 500.664,1081.46L529.38,1081.31C559.979,1081.31 582.212,1083.88 596.079,1089.02C609.946,1094.16 621.047,1103.31 629.38,1116.46C637.713,1129.61 641.88,1144.65 641.88,1161.58C641.88,1183.06 635.565,1200.8 622.935,1214.8C610.304,1228.8 591.424,1237.62 566.294,1241.27C578.794,1248.56 589.113,1256.57 597.251,1265.29C605.389,1274.01 616.359,1289.51 630.161,1311.77L665.122,1367.63L508.212,1367.63L466.415,1305.33L465.513,1303.98L465.513,1367.63L241.631,1367.63L241.631,1305.67L216.119,1305.67L216.119,1367.63ZM465.513,1200.4C468.458,1199.96 470.777,1199.46 472.469,1198.88C479.37,1196.54 484.774,1192.5 488.68,1186.77C492.587,1181.04 494.54,1173.88 494.54,1165.29C494.54,1155.65 491.968,1147.87 486.825,1141.95C481.767,1136.12 474.663,1132.41 465.513,1130.8L465.513,1200.4Z" style="fill:white;"/>
                </g>
                <g transform="matrix(1.35424,0,0,0.932535,-336.797,276.478)">
                    <path d="M870.449,902.142C874.275,951.83 885.096,999.48 927.95,1010.05C870.966,1026.47 874.317,1106.93 871.081,1159.5C866.632,1116.48 867.705,1047.92 833.446,1020.25C827.098,1015.13 819.537,1011.4 810.503,1009.51C855.964,999.825 867.192,955.067 870.449,902.142Z" style="fill:white;stroke:rgb(255,108,236);stroke-width:18.48px;"/>
                </g>
                <g transform="matrix(1.35424,0,0,0.932535,-921.5,23.8784)">
                    <path d="M870.449,902.142C874.275,951.83 885.096,999.48 927.95,1010.05C870.966,1026.47 874.317,1106.93 871.081,1159.5C866.632,1116.48 867.705,1047.92 833.446,1020.25C827.098,1015.13 819.537,1011.4 810.503,1009.51C855.964,999.825 867.192,955.067 870.449,902.142Z" style="fill:white;stroke:rgb(255,108,236);stroke-width:18.48px;"/>
                </g>
            </g>
        </g>
    </g>
</svg>
